HIERARCHY
ROOT Hips
{
	OFFSET 0.000000 100.481300 0.000000
	CHANNELS 6 Xposition Yposition Zposition Xrotation Yrotation Zrotation
	JOINT Spine
	{
		OFFSET -0.279200 12.230698 -2.892100
		CHANNELS 3 Xrotation Yrotation Zrotation
		JOINT Spine1
		{
			OFFSET -0.325700 14.269203 -3.374200
			CHANNELS 3 Xrotation Yrotation Zrotation
			JOINT Spine2
			{
				OFFSET -0.372300 16.307602 -0.352600
				CHANNELS 3 Xrotation Yrotation Zrotation
				JOINT Neck
				{
					OFFSET -0.418800 17.814194 8.416900
					CHANNELS 3 Xrotation Yrotation Zrotation
					JOINT Head
					{
						OFFSET 0.000000 7.031097 3.806800
						CHANNELS 3 Xrotation Yrotation Zrotation
						JOINT HeadTop_End
						{
							OFFSET 0.000000 24.646606 12.978600
							CHANNELS 3 Xrotation Yrotation Zrotation
							End Site
							{
								OFFSET 0.000000 27.854965 0.000000
							}
						}
					}
				}
				JOINT LeftShoulder
				{
					OFFSET 16.952999 14.495407 -7.737500
					CHANNELS 3 Xrotation Yrotation Zrotation
					JOINT LeftArm
					{
						OFFSET 9.308998 -2.777710 0.208600
						CHANNELS 3 Xrotation Yrotation Zrotation
						JOINT LeftForeArm
						{
							OFFSET 29.972298 0.000000 0.000000
							CHANNELS 3 Xrotation Yrotation Zrotation
							JOINT LeftHand
							{
								OFFSET 26.026505 0.000000 0.000000
								CHANNELS 3 Xrotation Yrotation Zrotation
								JOINT LeftHandThumb1
								{
									OFFSET 12.240501 -7.147949 9.207150
									CHANNELS 3 Xrotation Yrotation Zrotation
									JOINT LeftHandThumb2
									{
										OFFSET 4.138618 -2.389435 2.389433
										CHANNELS 3 Xrotation Yrotation Zrotation
										JOINT LeftHandThumb3
										{
											OFFSET 2.726913 -1.574387 1.574386
											CHANNELS 3 Xrotation Yrotation Zrotation
											JOINT LeftHandThumb4
											{
												OFFSET 3.941010 -2.275345 2.275342
												CHANNELS 3 Xrotation Yrotation Zrotation
												End Site
												{
													OFFSET -0.005798 5.087799 0.009903
												}
											}
										}
									}
								}
								JOINT LeftHandIndex1
								{
									OFFSET 24.424698 -1.985611 5.953459
									CHANNELS 3 Xrotation Yrotation Zrotation
									JOINT LeftHandIndex2
									{
										OFFSET 6.426697 0.000000 0.000000
										CHANNELS 3 Xrotation Yrotation Zrotation
										JOINT LeftHandIndex3
										{
											OFFSET 5.337898 0.000000 0.000000
											CHANNELS 3 Xrotation Yrotation Zrotation
											JOINT LeftHandIndex4
											{
												OFFSET 4.409401 0.000000 0.000000
												CHANNELS 3 Xrotation Yrotation Zrotation
												End Site
												{
													OFFSET 0.000000 4.409363 0.014373
												}
											}
										}
									}
								}
								JOINT LeftHandMiddle1
								{
									OFFSET 23.810104 0.000000 0.000000
									CHANNELS 3 Xrotation Yrotation Zrotation
									JOINT LeftHandMiddle2
									{
										OFFSET 7.176498 0.000000 0.000000
										CHANNELS 3 Xrotation Yrotation Zrotation
										JOINT LeftHandMiddle3
										{
											OFFSET 6.774902 0.000000 0.000000
											CHANNELS 3 Xrotation Yrotation Zrotation
											JOINT LeftHandMiddle4
											{
												OFFSET 5.403328 0.000000 0.000000
												CHANNELS 3 Xrotation Yrotation Zrotation
												End Site
												{
													OFFSET -0.027702 5.403244 0.017414
												}
											}
										}
									}
								}
								JOINT LeftHandRing1
								{
									OFFSET 22.908401 -0.839279 -6.020567
									CHANNELS 3 Xrotation Yrotation Zrotation
									JOINT LeftHandRing2
									{
										OFFSET 6.337502 0.000000 0.000000
										CHANNELS 3 Xrotation Yrotation Zrotation
										JOINT LeftHandRing3
										{
											OFFSET 5.779297 0.000000 0.000000
											CHANNELS 3 Xrotation Yrotation Zrotation
											JOINT LeftHandRing4
											{
												OFFSET 4.965698 0.000000 0.000000
												CHANNELS 3 Xrotation Yrotation Zrotation
												End Site
												{
													OFFSET 0.000000 4.965668 0.016186
												}
											}
										}
									}
								}
								JOINT LeftHandPinky1
								{
									OFFSET 20.037003 -1.530319 -10.950146
									CHANNELS 3 Xrotation Yrotation Zrotation
									JOINT LeftHandPinky2
									{
										OFFSET 5.254700 0.000000 0.000000
										CHANNELS 3 Xrotation Yrotation Zrotation
										JOINT LeftHandPinky3
										{
											OFFSET 4.810204 0.000000 0.000000
											CHANNELS 3 Xrotation Yrotation Zrotation
											JOINT LeftHandPinky4
											{
												OFFSET 3.647202 0.000000 0.000000
												CHANNELS 3 Xrotation Yrotation Zrotation
												End Site
												{
													OFFSET 0.000000 3.647186 0.011889
												}
											}
										}
									}
								}
							}
						}
					}
				}
				JOINT RightShoulder
				{
					OFFSET -15.141001 14.495407 -7.737500
					CHANNELS 3 Xrotation Yrotation Zrotation
					JOINT RightArm
					{
						OFFSET -9.308998 -2.777710 0.208500
						CHANNELS 3 Xrotation Yrotation Zrotation
						JOINT RightForeArm
						{
							OFFSET -29.972300 0.000000 0.000000
							CHANNELS 3 Xrotation Yrotation Zrotation
							JOINT RightHand
							{
								OFFSET -26.026505 0.000000 0.000000
								CHANNELS 3 Xrotation Yrotation Zrotation
								JOINT RightHandThumb1
								{
									OFFSET -12.240601 -7.148026 9.207092
									CHANNELS 3 Xrotation Yrotation Zrotation
									JOINT RightHandThumb2
									{
										OFFSET -4.138618 -2.389435 2.389433
										CHANNELS 3 Xrotation Yrotation Zrotation
										JOINT RightHandThumb3
										{
											OFFSET -2.726974 -1.574417 1.574421
											CHANNELS 3 Xrotation Yrotation Zrotation
											JOINT RightHandThumb4
											{
												OFFSET -3.941010 -2.275345 2.275343
												CHANNELS 3 Xrotation Yrotation Zrotation
												End Site
												{
													OFFSET 0.005814 5.087799 0.009927
												}
											}
										}
									}
								}
								JOINT RightHandIndex1
								{
									OFFSET -24.424698 -1.985657 5.953444
									CHANNELS 3 Xrotation Yrotation Zrotation
									JOINT RightHandIndex2
									{
										OFFSET -6.426697 0.000000 0.000000
										CHANNELS 3 Xrotation Yrotation Zrotation
										JOINT RightHandIndex3
										{
											OFFSET -5.337898 0.000000 0.000000
											CHANNELS 3 Xrotation Yrotation Zrotation
											JOINT RightHandIndex4
											{
												OFFSET -4.409401 0.000000 0.000000
												CHANNELS 3 Xrotation Yrotation Zrotation
												End Site
												{
													OFFSET 0.000000 4.409363 0.014408
												}
											}
										}
									}
								}
								JOINT RightHandMiddle1
								{
									OFFSET -23.810097 0.000000 0.000000
									CHANNELS 3 Xrotation Yrotation Zrotation
									JOINT RightHandMiddle2
									{
										OFFSET -7.176498 0.000000 0.000000
										CHANNELS 3 Xrotation Yrotation Zrotation
										JOINT RightHandMiddle3
										{
											OFFSET -6.774902 0.000000 0.000000
											CHANNELS 3 Xrotation Yrotation Zrotation
											JOINT RightHandMiddle4
											{
												OFFSET -5.403328 0.000000 0.000000
												CHANNELS 3 Xrotation Yrotation Zrotation
												End Site
												{
													OFFSET 0.027702 5.403244 0.017457
												}
											}
										}
									}
								}
								JOINT RightHandRing1
								{
									OFFSET -22.908302 -0.839325 -6.020576
									CHANNELS 3 Xrotation Yrotation Zrotation
									JOINT RightHandRing2
									{
										OFFSET -6.337502 0.000000 0.000000
										CHANNELS 3 Xrotation Yrotation Zrotation
										JOINT RightHandRing3
										{
											OFFSET -5.779297 0.000000 0.000000
											CHANNELS 3 Xrotation Yrotation Zrotation
											JOINT RightHandRing4
											{
												OFFSET -4.965698 0.000000 0.000000
												CHANNELS 3 Xrotation Yrotation Zrotation
												End Site
												{
													OFFSET 0.000000 4.965668 0.016226
												}
											}
										}
									}
								}
								JOINT RightHandPinky1
								{
									OFFSET -20.037003 -1.530334 -10.950259
									CHANNELS 3 Xrotation Yrotation Zrotation
									JOINT RightHandPinky2
									{
										OFFSET -5.254700 0.000000 0.000000
										CHANNELS 3 Xrotation Yrotation Zrotation
										JOINT RightHandPinky3
										{
											OFFSET -4.810204 0.000000 0.000000
											CHANNELS 3 Xrotation Yrotation Zrotation
											JOINT RightHandPinky4
											{
												OFFSET -3.647202 0.000000 0.000000
												CHANNELS 3 Xrotation Yrotation Zrotation
												End Site
												{
													OFFSET 0.000000 3.647186 0.011917
												}
											}
										}
									}
								}
							}
						}
					}
				}
			}
		}
	}
	JOINT LeftUpLeg
	{
		OFFSET 15.427100 -6.655098 0.678600
		CHANNELS 3 Xrotation Yrotation Zrotation
		JOINT LeftLeg
		{
			OFFSET 4.081073 -39.591068 13.024000
			CHANNELS 3 Xrotation Yrotation Zrotation
			JOINT LeftFoot
			{
				OFFSET -4.081074 -37.707932 -15.979700
				CHANNELS 3 Xrotation Yrotation Zrotation
				JOINT LeftToeBase
				{
					OFFSET 5.346399 -15.068900 20.645000
					CHANNELS 3 Xrotation Yrotation Zrotation
					JOINT LeftToe_End
					{
						OFFSET 2.754700 0.931300 11.300900
						CHANNELS 3 Xrotation Yrotation Zrotation
						End Site
						{
							OFFSET 0.000000 11.669021 0.000000
						}
					}
				}
			}
		}
	}
	JOINT RightUpLeg
	{
		OFFSET -15.569500 -6.655098 0.678600
		CHANNELS 3 Xrotation Yrotation Zrotation
		JOINT RightLeg
		{
			OFFSET -4.081825 -39.591045 13.023800
			CHANNELS 3 Xrotation Yrotation Zrotation
			JOINT RightFoot
			{
				OFFSET 4.081824 -37.707954 -15.979600
				CHANNELS 3 Xrotation Yrotation Zrotation
				JOINT RightToeBase
				{
					OFFSET -5.346400 -15.068900 20.645000
					CHANNELS 3 Xrotation Yrotation Zrotation
					JOINT RightToe_End
					{
						OFFSET -2.754700 0.931300 11.300900
						CHANNELS 3 Xrotation Yrotation Zrotation
						End Site
						{
							OFFSET 0.000000 11.669021 0.000000
						}
					}
				}
			}
		}
	}
}
MOTION
Frames: 4
Frame Time: 0.033333
12.629509 67.333427 20.293915 -11.196547 -30.107354 1.461006 1.480795 -2.950025 1.995239 2.987343 -3.832465 3.310585 2.987342 -3.832453 3.310579 -16.908719 -1.712489 3.336629 6.674077 -4.396873 -4.512701 0.000000 -0.000001 -0.000001 -0.690841 5.395528 6.791248 -11.803926 7.756803 -80.844366 -0.178086 -92.827803 -0.124230 -84.547852 16.096207 -19.487768 0.495342 9.887289 1.827680 4.338120 10.813777 2.254266 0.000010 -0.000001 0.000002 -0.000002 0.000000 -0.000001 2.913108 11.499400 -21.529450 0.450852 1.212615 -53.000885 -0.000002 -0.000002 -0.000002 0.000000 -0.000001 0.000001 1.901076 6.540311 -25.561971 -1.463412 -2.895534 -46.452212 -0.000003 0.000005 0.000002 -0.000002 0.000001 -0.000002 -0.369804 6.716309 -25.655866 -1.445786 -3.992850 -45.356879 0.000003 0.000006 -0.000001 0.000005 0.000001 -0.000000 -2.349894 4.264730 -18.220004 -3.927667 -9.033188 -54.237327 0.000000 -0.000000 0.000003 -0.000003 -0.000001 -0.000000 -1.695221 15.401028 31.074212 -36.974751 34.695493 45.137179 -0.041854 114.969200 0.021366 -39.079112 7.301272 20.219412 -4.765589 -0.540461 0.088722 8.569045 -19.238283 -1.971287 -0.000008 0.000006 0.000016 -0.000000 0.000001 0.000002 -1.978328 -12.925917 42.668605 0.812533 -2.097182 48.855039 0.000001 0.000001 0.000002 0.000001 0.000001 0.000000 -2.528819 -6.374919 46.683827 -0.937376 1.896560 42.471305 -0.000000 0.000005 -0.000007 -0.000000 0.000000 0.000001 -0.747324 -3.939286 50.551272 -0.703382 3.356932 27.667471 -0.000000 0.000000 -0.000001 -0.000001 -0.000001 -0.000001 0.772082 -0.246259 44.657498 -1.174892 7.583442 28.208338 -0.000000 0.000001 0.000000 -0.000000 0.000000 -0.000000 -8.144791 8.615329 28.625468 60.471244 -7.035861 -5.529588 -32.579931 1.492551 -21.552027 -5.717423 -0.034785 -0.331457 0.000000 0.000000 0.000000 -38.807134 22.486712 -29.046028 60.413959 4.149077 3.582600 -4.371115 -4.052393 24.080595 -2.183372 -0.180063 0.434654 -0.000000 -0.000000 0.000000 
13.606035 68.974617 20.065817 -11.258110 -33.038697 0.874159 1.533522 -3.273587 2.212505 3.076526 -4.364534 3.321703 3.076523 -4.364528 3.321700 -16.963116 -1.629624 3.693848 6.419547 -3.891534 -4.901637 0.000001 -0.000000 -0.000001 -0.790175 5.605746 7.645798 -11.095498 6.552472 -81.693659 -0.796542 -92.905688 -0.742439 -86.050193 12.673767 -19.401402 0.498528 9.882718 1.780244 4.308307 10.753475 2.254108 0.000011 -0.000003 0.000004 -0.000002 0.000001 -0.000000 2.893252 11.318264 -21.636957 0.447543 1.210573 -52.765674 -0.000000 -0.000002 0.000000 0.000002 0.000002 -0.000002 1.879977 6.424136 -25.656976 -1.449376 -2.882135 -46.214460 -0.000001 0.000009 0.000001 0.000003 0.000001 -0.000002 -0.370414 6.715025 -25.672531 -1.425806 -3.973074 -45.025686 0.000001 0.000003 -0.000000 0.000001 -0.000001 -0.000001 -2.340748 4.350920 -18.225108 -3.914950 -9.033682 -53.885326 -0.000003 -0.000000 -0.000001 -0.000002 0.000001 -0.000002 -1.689785 15.300056 31.204727 -37.742714 34.747389 45.433489 -0.053575 113.817022 0.030403 -39.935645 7.009850 19.738487 -4.567137 -0.364716 0.272510 8.473897 -19.054372 -1.984646 -0.000007 0.000004 0.000017 -0.000001 -0.000001 0.000002 -2.048184 -12.726015 42.304190 0.802552 -2.089133 48.516678 0.000001 -0.000000 0.000001 -0.000001 0.000000 -0.000001 -2.555622 -6.281117 46.310824 -0.923301 1.881080 42.133282 -0.000001 0.000003 -0.000006 0.000000 -0.000000 0.000000 -0.716062 -3.965113 50.187161 -0.699219 3.348991 27.584405 0.000001 -0.000000 0.000000 0.000000 0.000000 0.000000 0.854728 -0.403422 44.318038 -1.178551 7.590124 28.252738 -0.000000 0.000001 0.000000 0.000000 -0.000000 -0.000000 -4.887111 11.964789 21.906088 60.628830 -5.460953 -4.852639 -35.827733 3.663441 -18.272235 -8.087691 -0.040465 0.079952 0.000000 -0.000000 -0.000000 -38.935387 23.193357 -26.701320 56.609335 3.329720 3.040203 -2.147384 -1.945074 24.077981 -1.811582 -0.181672 0.436724 0.000000 0.000002 -0.000000 
15.110743 71.498352 20.111567 -9.788535 -38.318608 0.948462 1.528843 -3.356502 2.408288 3.049309 -4.470202 3.343258 3.049313 -4.470210 3.343260 -17.602687 -1.386704 4.159330 5.713020 -2.379999 -5.563385 0.000000 -0.000002 -0.000001 -0.889444 5.702799 8.678728 -9.898846 5.777587 -82.678388 -1.334194 -93.813871 -1.279203 -87.154395 8.713441 -19.176079 0.524197 9.848934 1.413598 4.278330 10.692822 2.253911 0.000005 -0.000003 0.000002 0.000004 0.000001 0.000000 2.872613 11.136186 -21.744974 0.444202 1.208524 -52.529090 -0.000001 -0.000000 -0.000001 -0.000000 -0.000002 0.000001 1.858245 6.307421 -25.752475 -1.435308 -2.868597 -45.975390 0.000002 0.000010 0.000001 -0.000003 -0.000004 0.000001 -0.371032 6.713749 -25.689187 -1.405846 -3.953050 -44.692547 0.000004 0.000004 -0.000000 0.000001 0.000000 0.000001 -2.331448 4.437547 -18.230279 -3.901913 -9.034152 -53.531263 -0.000005 -0.000000 0.000001 -0.000002 -0.000001 -0.000000 -1.895639 15.969927 31.860285 -38.283825 34.679387 44.896616 -0.095585 112.734301 0.067969 -41.126563 6.574359 18.247667 -4.368276 -0.186657 0.456497 8.378369 -18.869412 -1.997704 -0.000007 0.000007 0.000016 0.000000 -0.000000 -0.000000 -2.115917 -12.524615 41.937846 0.792554 -2.080981 48.176388 -0.000000 0.000000 -0.000002 -0.000000 -0.000000 -0.000000 -2.581275 -6.186624 45.935676 -0.909238 1.865437 41.793282 -0.000004 0.000005 -0.000005 -0.000002 0.000000 -0.000001 -0.684790 -3.991293 49.820930 -0.695049 3.341011 27.500865 0.000000 -0.000000 0.000000 0.000000 0.000000 0.000000 0.936219 -0.561966 43.976521 -1.182243 7.596849 28.297405 0.000000 0.000000 0.000001 0.000000 -0.000000 0.000000 -0.728902 15.080569 13.916928 55.667841 -5.022622 -4.586645 -38.928837 11.690116 -12.583999 -5.914528 -0.036129 0.075519 0.000000 0.000001 0.000000 -41.274881 22.933853 -23.980941 49.693840 2.136814 2.298095 3.205142 1.671614 23.286826 -1.879522 -0.181453 0.436340 -0.000000 0.000003 0.000000 
17.353580 74.235603 20.340473 -6.994731 -45.357288 1.784359 1.510999 -3.087518 2.702212 2.992583 -4.020148 3.435730 2.992582 -4.020145 3.435726 -18.497382 -1.051150 4.447893 4.888732 -0.505371 -6.063869 -0.000001 0.000000 0.000001 -0.878830 5.544062 8.864953 -9.452236 5.475199 -83.197441 -1.363651 -95.179465 -1.306830 -87.366398 5.114212 -18.384453 0.551016 9.809089 1.004285 4.248218 10.631838 2.253661 0.000011 -0.000002 0.000003 0.000003 0.000000 -0.000000 2.851169 10.953253 -21.853513 0.440870 1.206410 -52.291228 -0.000001 0.000003 -0.000001 0.000001 0.000002 -0.000003 1.835902 6.190221 -25.848475 -1.421204 -2.854934 -45.734957 0.000001 0.000006 -0.000001 0.000001 0.000005 -0.000003 -0.371659 6.712471 -25.705818 -1.385864 -3.932813 -44.357601 0.000002 0.000004 0.000002 -0.000001 0.000003 0.000000 -2.321981 4.524619 -18.235500 -3.888555 -9.034558 -53.175181 -0.000003 -0.000001 0.000001 -0.000001 0.000002 -0.000002 -2.125124 16.775858 32.407981 -38.667484 34.559156 44.238254 -0.168853 111.798189 0.136950 -42.846395 5.999273 15.985530 -4.169045 -0.006312 0.640663 8.282443 -18.683376 -2.010521 -0.000007 0.000003 0.000016 0.000000 -0.000002 0.000000 -2.181399 -12.321776 41.569737 0.782537 -2.072712 47.834198 -0.000000 -0.000000 0.000001 0.000002 -0.000000 0.000000 -2.605708 -6.091481 45.558496 -0.895185 1.849602 41.451414 -0.000001 0.000005 -0.000007 0.000001 -0.000000 0.000000 -0.653502 -4.017819 49.452714 -0.690860 3.332979 27.416849 0.000000 -0.000000 0.000000 -0.000000 -0.000000 -0.000000 1.016527 -0.721847 43.633069 -1.185960 7.603593 28.342321 -0.000000 0.000001 -0.000000 -0.000000 0.000000 -0.000001 2.335574 16.893812 7.065887 48.822353 -3.245283 -3.858024 -41.083492 19.366240 -8.349634 -5.927750 -0.036150 0.075550 0.000000 -0.000000 0.000000 -44.240074 21.514881 -21.372896 41.493372 1.053554 1.553208 9.825477 0.651120 21.770871 -4.461230 -0.173398 0.421901 -0.000000 -0.000003 -0.000000 
